<svg xmlns="http://www.w3.org/2000/svg" xmlns:xlink="http://www.w3.org/1999/xlink" zoomAndPan="magnify" preserveAspectRatio="xMidYMid meet" version="1.2" viewBox="52.86 113.53 268.46 147.93"><defs/><g id="fc71b594c9"><g style="fill:#ffffff;fill-opacity:1;"><g transform="translate(49.777603, 230.501982)"><path style="stroke:none" d="M 39.53125 -98.34375 L 62.71875 -30.875 L 63 -30.875 L 86.609375 -98.34375 L 120.265625 -98.34375 L 120.265625 -95.828125 L 109.796875 -95.828125 L 109.796875 -2.515625 L 120.265625 -2.515625 L 120.265625 0 L 75.984375 0 L 75.984375 -2.515625 L 88 -2.515625 L 88 -93.3125 L 87.71875 -93.3125 L 55.171875 0 L 51.40625 0 L 18.015625 -94.984375 L 17.734375 -94.984375 L 17.734375 -15.359375 C 17.734375 -10.523438 18.410156 -7.175781 19.765625 -5.3125 C 21.117188 -3.445312 23.84375 -2.515625 27.9375 -2.515625 L 30.171875 -2.515625 L 30.171875 0 L 3.078125 0 L 3.078125 -2.515625 L 3.625 -2.515625 C 7.164062 -2.515625 9.84375 -3.398438 11.65625 -5.171875 C 13.476562 -6.941406 14.390625 -9.921875 14.390625 -14.109375 L 14.390625 -95.828125 L 3.765625 -95.828125 L 3.765625 -98.34375 Z M 39.53125 -98.34375 "/></g></g><g style="fill:#ffffff;fill-opacity:1;"><g transform="translate(201.048371, 230.501982)"><path style="stroke:none" d="M 39.53125 -98.34375 L 62.71875 -30.875 L 63 -30.875 L 86.609375 -98.34375 L 120.265625 -98.34375 L 120.265625 -95.828125 L 109.796875 -95.828125 L 109.796875 -2.515625 L 120.265625 -2.515625 L 120.265625 0 L 75.984375 0 L 75.984375 -2.515625 L 88 -2.515625 L 88 -93.3125 L 87.71875 -93.3125 L 55.171875 0 L 51.40625 0 L 18.015625 -94.984375 L 17.734375 -94.984375 L 17.734375 -15.359375 C 17.734375 -10.523438 18.410156 -7.175781 19.765625 -5.3125 C 21.117188 -3.445312 23.84375 -2.515625 27.9375 -2.515625 L 30.171875 -2.515625 L 30.171875 0 L 3.078125 0 L 3.078125 -2.515625 L 3.625 -2.515625 C 7.164062 -2.515625 9.84375 -3.398438 11.65625 -5.171875 C 13.476562 -6.941406 14.390625 -9.921875 14.390625 -14.109375 L 14.390625 -95.828125 L 3.765625 -95.828125 L 3.765625 -98.34375 Z M 39.53125 -98.34375 "/></g></g><path style="fill:none;stroke-width:2;stroke-linecap:butt;stroke-linejoin:miter;stroke:#ffffff;stroke-opacity:1;stroke-miterlimit:4;" d="M -0.0000216048 1.002242 L 194.578116 1.002242 " transform="matrix(0,-0.75,0.75,0,186.744412,260.460921)"/><path style=" stroke:none;fill-rule:nonzero;fill:#000000;fill-opacity:1;" d="M 84.1875 170.035156 L 290.804688 170.035156 L 290.804688 196.898438 L 84.1875 196.898438 L 84.1875 170.035156 "/><g style="fill:#ffffff;fill-opacity:1;"><g transform="translate(95.525755, 188.341512)"><path style="stroke:none" d="M 12.078125 0 L 12.078125 -11.019531 L 10.113281 -11.019531 L 6.675781 -2.628906 L 3.253906 -11.019531 L 1.289062 -11.019531 L 1.289062 0 L 2.660156 0 L 2.660156 -9.171875 L 6.394531 0 L 6.957031 0 L 10.707031 -9.171875 L 10.707031 0 Z M 12.078125 0 "/></g></g><g style="fill:#ffffff;fill-opacity:1;"><g transform="translate(118.33812, 188.341512)"><path style="stroke:none" d="M 2.660156 0 L 2.660156 -11.019531 L 1.289062 -11.019531 L 1.289062 0 Z M 2.660156 0 "/></g></g><g style="fill:#ffffff;fill-opacity:1;"><g transform="translate(131.738831, 188.341512)"><path style="stroke:none" d="M 12.078125 0 L 12.078125 -11.019531 L 10.113281 -11.019531 L 6.675781 -2.628906 L 3.253906 -11.019531 L 1.289062 -11.019531 L 1.289062 0 L 2.660156 0 L 2.660156 -9.171875 L 6.394531 0 L 6.957031 0 L 10.707031 -9.171875 L 10.707031 0 Z M 12.078125 0 "/></g></g><g style="fill:#ffffff;fill-opacity:1;"><g transform="translate(154.551196, 188.341512)"><path style="stroke:none" d="M 0.84375 -5.503906 C 0.84375 -2.246094 3.039062 0.199219 6.3125 0.199219 C 9.566406 0.199219 11.78125 -2.246094 11.78125 -5.503906 C 11.78125 -8.757812 9.566406 -11.203125 6.3125 -11.203125 C 3.039062 -11.203125 0.84375 -8.757812 0.84375 -5.503906 Z M 10.359375 -5.503906 C 10.359375 -2.941406 8.773438 -1.023438 6.3125 -1.023438 C 3.832031 -1.023438 2.261719 -2.941406 2.261719 -5.503906 C 2.261719 -8.078125 3.832031 -9.980469 6.3125 -9.980469 C 8.773438 -9.980469 10.359375 -8.078125 10.359375 -5.503906 Z M 10.359375 -5.503906 "/></g></g><g style="fill:#ffffff;fill-opacity:1;"><g transform="translate(176.637056, 188.341512)"><path style="stroke:none" d="M 0.628906 -1.554688 C 1.535156 -0.527344 2.941406 0.199219 4.859375 0.199219 C 7.832031 0.199219 8.921875 -1.4375 8.921875 -3.039062 C 8.921875 -5.351562 6.875 -5.914062 5.074219 -6.394531 C 3.667969 -6.773438 2.394531 -7.105469 2.394531 -8.210938 C 2.394531 -9.253906 3.335938 -9.964844 4.660156 -9.964844 C 5.867188 -9.964844 7.023438 -9.550781 7.847656 -8.640625 L 8.675781 -9.648438 C 7.75 -10.625 6.445312 -11.1875 4.757812 -11.1875 C 2.59375 -11.1875 0.976562 -9.945312 0.976562 -8.128906 C 0.976562 -5.964844 2.941406 -5.46875 4.707031 -5.007812 C 6.164062 -4.609375 7.5 -4.246094 7.5 -2.925781 C 7.5 -2.082031 6.875 -1.023438 4.90625 -1.023438 C 3.355469 -1.023438 2.164062 -1.785156 1.4375 -2.59375 Z M 0.628906 -1.554688 "/></g></g><g style="fill:#ffffff;fill-opacity:1;"><g transform="translate(195.767319, 188.341512)"><path style="stroke:none" d="M 10.722656 0 L 6.277344 -11.019531 L 4.578125 -11.019531 L 0.148438 0 L 1.667969 0 L 2.644531 -2.445312 L 8.226562 -2.445312 L 9.203125 0 Z M 7.816406 -3.667969 L 3.039062 -3.667969 L 5.4375 -9.796875 Z M 7.816406 -3.667969 "/></g></g><g style="fill:#ffffff;fill-opacity:1;"><g transform="translate(216.086428, 188.341512)"><path style="stroke:none" d=""/></g></g><g style="fill:#ffffff;fill-opacity:1;"><g transform="translate(229.800867, 188.341512)"><path style="stroke:none" d="M 7.78125 0 L 7.78125 -1.222656 L 2.660156 -1.222656 L 2.660156 -11.019531 L 1.289062 -11.019531 L 1.289062 0 Z M 7.78125 0 "/></g></g><g style="fill:#ffffff;fill-opacity:1;"><g transform="translate(247.67624, 188.341512)"><path style="stroke:none" d="M 6.460938 0.199219 C 8.460938 0.199219 9.78125 -0.726562 10.707031 -1.984375 L 9.535156 -2.628906 C 8.90625 -1.683594 7.765625 -1.023438 6.460938 -1.023438 C 4.097656 -1.023438 2.261719 -2.890625 2.261719 -5.503906 C 2.261719 -8.128906 4.097656 -9.980469 6.460938 -9.980469 C 7.765625 -9.980469 8.90625 -9.300781 9.535156 -8.375 L 10.691406 -9.019531 C 9.8125 -10.261719 8.460938 -11.203125 6.460938 -11.203125 C 3.335938 -11.203125 0.84375 -8.890625 0.84375 -5.503906 C 0.84375 -2.113281 3.335938 0.199219 6.460938 0.199219 Z M 6.460938 0.199219 "/></g></g><g style="fill:#ffffff;fill-opacity:1;"><g transform="translate(268.292553, 188.341512)"><path style="stroke:none" d="M 6.460938 0.199219 C 8.460938 0.199219 9.78125 -0.726562 10.707031 -1.984375 L 9.535156 -2.628906 C 8.90625 -1.683594 7.765625 -1.023438 6.460938 -1.023438 C 4.097656 -1.023438 2.261719 -2.890625 2.261719 -5.503906 C 2.261719 -8.128906 4.097656 -9.980469 6.460938 -9.980469 C 7.765625 -9.980469 8.90625 -9.300781 9.535156 -8.375 L 10.691406 -9.019531 C 9.8125 -10.261719 8.460938 -11.203125 6.460938 -11.203125 C 3.335938 -11.203125 0.84375 -8.890625 0.84375 -5.503906 C 0.84375 -2.113281 3.335938 0.199219 6.460938 0.199219 Z M 6.460938 0.199219 "/></g></g></g></svg>